# xmcd
#
# Track frame offsets:
#	150
#	2342
#	20825
#	65000
#	84435
#	99497
#	121657
#	167870
#	186367
#	192267
#	209285
#	215737
#	237897
#	242782
#	262215
#	272070
#
# Disc length: 3986 seconds
#
# Revision: 1
# Processed by: cddbd v1.5PL3 Copyright (c) Steve Scherf et al.
# Submitted via: CDex 1.50Beta5
#
DISCID=e70f9010
DTITLE=coopee - VOICE CREW COLLECTION 001 coopee
DYEAR=2002
DGENRE=Pop
TTITLE0=coopee/OPENING TALK
TTITLE1=coopee/「恋をしよう So しよう」
TTITLE2=coopee/TALK その1
TTITLE3=斎藤千和/「ビーチサンダルの王子様」
TTITLE4=coopee/ポエトリー・リーディング
TTITLE5=桑谷夏子/「a little…」
TTITLE6=coopee/TALK その2
TTITLE7=coopee/「恋をしよう So しよう」(Off Vocal Version)
TTITLE8=coopee/TALK その3
TTITLE9=coopee/「君の背中」(Off Vocal Version)
TTITLE10=coopee/TALK その4
TTITLE11=桑谷夏子/「a little…」(Off Vocal Version)
TTITLE12=coopee/TALK その5
TTITLE13=斎藤千和/「ビーチサンダルの王子様」(Off Vocal Version)
TTITLE14=coopee/TALK その6
TTITLE15=coopee/「君の背中」
EXTD=
EXTT0=
EXTT1=
EXTT2=
EXTT3=
EXTT4=
EXTT5=
EXTT6=
EXTT7=
EXTT8=
EXTT9=
EXTT10=
EXTT11=
EXTT12=
EXTT13=
EXTT14=
EXTT15=
PLAYORDER=
